<svg width="817" height="371" viewBox="0 0 817 371" fill="none" xmlns="http://www.w3.org/2000/svg">
<path d="M177.859 275.966L86.4653 182.586M86.4653 182.586L58.333 155.505L126.5 87.3381L179.995 87.3381L86.4653 182.586Z" stroke="white" stroke-opacity="0.8" stroke-width="18.676"/>
<path d="M190.933 247.952L285.246 154.572L254.883 125.624M133.037 190.056L225.483 96.6761L254.883 125.624M254.883 125.624L161.985 219.004" stroke="white" stroke-width="18.676"/>
<path d="M362.31 168.84V156.52H368.82C373.58 156.52 375.61 158.9 375.61 162.68C375.61 166.46 373.58 168.84 368.82 168.84H362.31ZM387.79 162.68C387.79 153.65 381.77 146.86 369.73 146.86H350.34V196H362.31V178.36H369.73C382.26 178.36 387.79 170.8 387.79 162.68ZM420.992 162.82C420.992 166.67 418.892 168.98 414.412 168.98H406.992V156.8H414.412C418.892 156.8 420.992 159.18 420.992 162.82ZM395.022 146.86V196H406.992V177.45H409.862L420.082 196H433.592L422.252 176.54C429.812 174.3 433.172 168.49 433.172 162.33C433.172 153.79 427.152 146.86 415.112 146.86H395.022ZM490.056 171.29C490.056 156.52 478.926 146.16 464.926 146.16C450.996 146.16 439.656 156.52 439.656 171.29C439.656 186.06 450.996 196.49 464.926 196.49C478.856 196.49 490.056 186.06 490.056 171.29ZM451.906 171.29C451.906 162.54 456.946 157.01 464.926 157.01C472.766 157.01 477.876 162.54 477.876 171.29C477.876 179.9 472.766 185.57 464.926 185.57C456.946 185.57 451.906 179.9 451.906 171.29ZM516.125 146.86H497.715V196H516.125C531.805 196 541.885 185.99 541.885 171.43C541.885 156.8 531.805 146.86 516.125 146.86ZM509.685 185.64V157.08H515.355C524.385 157.08 529.705 162.4 529.705 171.43C529.705 180.46 524.385 185.64 515.355 185.64H509.685ZM565.408 196H577.378V166.46L588.438 196H598.098L609.088 166.53V196H621.058V146.86H606.988L593.338 180.88L579.548 146.86H565.408V196ZM657.756 181.02C657.756 184.52 655.446 186.34 651.456 186.34H642.636V175.49H651.316C655.306 175.49 657.756 177.52 657.756 181.02ZM656.566 161.63C656.566 164.99 654.396 166.74 650.476 166.74H642.636V156.45H650.476C654.396 156.45 656.566 158.27 656.566 161.63ZM669.866 182.63C669.866 177.03 666.156 171.99 660.416 170.8C665.176 169.4 668.746 165.55 668.746 159.6C668.746 151.83 662.796 146.86 652.786 146.86H630.666V196H653.556C663.916 196 669.866 190.75 669.866 182.63ZM711.339 196H724.009L706.229 146.86H692.369L674.589 196H687.119L690.059 187.32H708.399L711.339 196ZM705.319 178.08H693.209L699.229 160.09L705.319 178.08Z" fill="white"/>
</svg>
