<svg width="246" height="202" viewBox="0 0 246 202" fill="none" xmlns="http://www.w3.org/2000/svg">
<path d="M56.8458 57.8H90.9258C94.0458 57.8 96.8458 58.44 99.3258 59.72C101.806 61 103.886 62.72 105.566 64.88C107.326 67.04 108.646 69.52 109.526 72.32C110.486 75.04 110.966 77.88 110.966 80.84C110.966 84.76 110.126 88.68 108.446 92.6C106.766 96.44 104.486 99.92 101.606 103.04C98.8058 106.08 95.4858 108.56 91.6458 110.48C87.8858 112.4 83.8858 113.36 79.6458 113.36H58.5258L52.2858 143H38.7258L56.8458 57.8ZM81.4458 101.48C83.5258 101.48 85.4858 100.96 87.3258 99.92C89.2458 98.88 90.9258 97.48 92.3658 95.72C93.8058 93.88 94.9258 91.8 95.7258 89.48C96.6058 87.08 97.0458 84.56 97.0458 81.92C97.0458 78.24 96.1258 75.28 94.2858 73.04C92.5258 70.8 90.2458 69.68 87.4458 69.68H67.8858L61.0458 101.48H81.4458ZM128.916 57.8H143.316L158.436 109.88L195.756 57.8H210.036L191.916 143H178.356L191.436 81.68L158.316 128.12H150.876L137.436 81.68L124.356 143H110.796L128.916 57.8Z" fill="white"/>
</svg>
