<svg width="269" height="152" viewBox="0 0 269 152" fill="none" xmlns="http://www.w3.org/2000/svg">
<path d="M191 76.9599C191 73.0265 190.678 69.1078 190.006 65.2329H135.641V87.4293H166.771C165.484 94.5941 161.332 100.926 155.264 104.947V119.364H173.848C184.727 109.348 191 94.5064 191 76.9599V76.9599Z" fill="#A5A5A5"/>
<path d="M135.64 133.298C151.198 133.298 164.299 128.195 173.847 119.378L155.263 104.961C150.086 108.47 143.433 110.473 135.64 110.473C120.608 110.473 107.843 100.34 103.281 86.6831H84.1406V101.539C93.9228 121.016 113.853 133.298 135.64 133.298V133.298Z" fill="#CACACA"/>
<path d="M103.282 86.6841C100.869 79.5338 100.869 71.7695 103.282 64.6193V49.7632H84.1413C75.9529 66.0522 75.9529 85.2511 84.1413 101.54L103.282 86.6841Z" fill="#DADADA"/>
<path d="M135.64 40.8286C143.857 40.697 151.797 43.7969 157.748 49.4703L174.213 33.0204C163.773 23.2236 149.955 17.8427 135.64 18.0035C113.853 18.0035 93.9228 30.3007 84.1406 49.7627L103.281 64.6188C107.843 50.9618 120.608 40.8286 135.64 40.8286V40.8286Z" fill="#BEBEBE"/>
</svg>
