<svg width="269" height="152" viewBox="0 0 269 152" fill="none" xmlns="http://www.w3.org/2000/svg">
<path fill-rule="evenodd" clip-rule="evenodd" d="M90.6854 24C86.4408 24 83 27.3577 83 31.4972V121.163C83 125.303 86.4408 128.66 90.6854 128.66H179.315C183.559 128.66 187 125.303 187 121.163V31.4972C187 27.3577 183.559 24 179.315 24H90.6854ZM114.528 111.613V64.3531H98.8194V111.613H114.528ZM106.673 57.9005C112.151 57.9005 115.561 54.2715 115.561 49.7363C115.459 45.099 112.151 41.5706 106.777 41.5706C101.404 41.5706 97.8908 45.099 97.8908 49.7363C97.8908 54.2715 101.3 57.9005 106.571 57.9005H106.673H106.673ZM123.22 111.613H138.928V85.221C138.928 83.8085 139.03 82.3975 139.444 81.3878C140.58 78.5657 143.165 75.6429 147.504 75.6429C153.188 75.6429 155.462 79.9767 155.462 86.33V111.613H171.169V84.5148C171.169 69.9987 163.419 63.2441 153.084 63.2441C144.752 63.2441 141.016 67.8239 138.928 71.0442V64.3531H123.22C123.426 68.7876 123.22 111.613 123.22 111.613ZM138.928 71.0442V71.207H138.823C138.858 71.1531 138.893 71.0988 138.928 71.0442Z" fill="#A5A5A5"/>
</svg>
