<svg width="269" height="152" viewBox="0 0 269 152" fill="none" xmlns="http://www.w3.org/2000/svg">
<g clip-path="url(#clip0)">
<path d="M210.095 74.896L219.2 99C216.517 98.6167 213.835 98.1367 211.104 97.7043L205.975 84.3858L200.705 96.6049C198.118 96.1725 195.577 96.0284 192.991 95.6926L202.238 74.6093L193.851 53H201.614L206.309 65.0735L211.342 53H219.198L210.095 74.896ZM187.721 53H180.677V94.7833C182.977 94.9275 185.372 95.0225 187.721 95.3093V53ZM174.591 94.3034C168.171 93.8725 161.749 93.4907 155.185 93.3451V53H162.372V86.5417C166.493 86.6367 170.613 86.971 174.591 87.1627V94.3034V94.3034ZM147.517 69.3407V76.5275H137.694V92.8667H130.604V53H150.729V60.1867H137.696V69.3407H147.518H147.517ZM118.527 60.1867V93.25C116.131 93.25 113.688 93.25 111.339 93.3451V60.1867H103.912V53H126.001V60.1867H118.527V60.1867ZM96.15 76.9093C92.9883 76.9093 89.25 76.9093 86.5667 77.0549V87.7392C90.7833 87.4509 95 87.1167 99.2642 86.9725V93.8725L79.3799 95.4549V53H99.2627V60.1867H86.5667V69.8667C89.3466 69.8667 93.6108 69.7225 96.15 69.7225V76.9108V76.9093ZM56.3293 72.8843V97.9926C53.7441 98.2809 51.4426 98.6167 49 99V53H55.8525L65.1951 79.1157V53H72.3833V96.0284C69.8441 96.4608 67.2559 96.6049 64.525 96.9867L56.3293 72.8843Z" fill="#A5A5A5"/>
</g>
<defs>
<clipPath id="clip0">
<rect x="49" y="53" width="170.2" height="46" fill="white"/>
</clipPath>
</defs>
</svg>
