<svg width="269" height="152" viewBox="0 0 269 152" fill="none" xmlns="http://www.w3.org/2000/svg">
<path d="M135.005 25C121.154 25 119.416 25.0606 113.976 25.3081C108.546 25.5568 104.84 26.4163 101.597 27.6775C98.243 28.9802 95.3976 30.7227 92.5628 33.5585C89.7259 36.3933 87.9833 39.2387 86.6764 42.592C85.4121 45.8358 84.5514 49.543 84.3071 54.9703C84.0638 60.4103 84 62.1496 84 76.0005C84 89.8514 84.0616 91.5844 84.3081 97.0245C84.5578 102.454 85.4174 106.16 86.6775 109.403C87.9813 112.757 89.7237 115.602 92.5596 118.437C95.3933 121.274 98.2387 123.021 101.591 124.324C104.836 125.585 108.543 126.444 113.971 126.693C119.411 126.941 121.149 127.001 134.998 127.001C148.85 127.001 150.583 126.941 156.023 126.693C161.453 126.444 165.163 125.585 168.408 124.324C171.761 123.021 174.602 121.274 177.436 118.437C180.273 115.602 182.016 112.757 183.323 109.404C184.576 106.16 185.437 102.453 185.692 97.0255C185.936 91.5855 186 89.8514 186 76.0005C186 62.1496 185.936 60.4114 185.692 54.9713C185.437 49.5419 184.576 45.8358 183.323 42.5931C182.016 39.2387 180.273 36.3933 177.436 33.5585C174.599 30.7216 171.762 28.9791 168.405 27.6775C165.154 26.4163 161.445 25.5568 156.016 25.3081C150.576 25.0606 148.844 25 134.989 25H135.005ZM130.43 34.1907C131.788 34.1886 133.303 34.1907 135.005 34.1907C148.622 34.1907 150.236 34.2396 155.613 34.484C160.586 34.7114 163.285 35.5422 165.082 36.2403C167.462 37.1647 169.159 38.2697 170.943 40.0547C172.728 41.8397 173.833 43.5398 174.76 45.9198C175.458 47.7154 176.29 50.4142 176.516 55.3868C176.76 60.7631 176.814 62.3781 176.814 75.9889C176.814 89.5996 176.76 91.2146 176.516 96.591C176.289 101.564 175.458 104.262 174.76 106.058C173.835 108.438 172.728 110.133 170.943 111.917C169.158 113.702 167.463 114.807 165.082 115.731C163.287 116.432 160.586 117.261 155.613 117.488C150.237 117.733 148.622 117.786 135.005 117.786C121.387 117.786 119.773 117.733 114.396 117.488C109.424 117.259 106.725 116.428 104.926 115.73C102.546 114.806 100.846 113.701 99.0611 111.916C97.2761 110.131 96.1711 108.435 95.2446 106.054C94.5465 104.258 93.7145 101.559 93.4882 96.5867C93.2438 91.2104 93.195 89.5954 93.195 75.9761C93.195 62.3568 93.2438 60.7503 93.4882 55.374C93.7156 50.4015 94.5465 47.7027 95.2446 45.9049C96.169 43.5249 97.2761 41.8249 99.0611 40.0399C100.846 38.2548 102.546 37.1498 104.926 36.2233C106.724 35.5221 109.424 34.6933 114.396 34.4649C119.101 34.2524 120.924 34.1886 130.43 34.178V34.1907ZM162.228 42.6589C158.85 42.6589 156.108 45.397 156.108 48.7769C156.108 52.1557 158.85 54.8969 162.228 54.8969C165.607 54.8969 168.349 52.1557 168.349 48.7769C168.349 45.3981 165.607 42.6568 162.228 42.6568V42.6589ZM135.005 49.8096C120.541 49.8096 108.814 61.5366 108.814 76.0005C108.814 90.4645 120.541 102.186 135.005 102.186C149.469 102.186 161.191 90.4645 161.191 76.0005C161.191 61.5366 149.468 49.8096 135.004 49.8096H135.005ZM135.005 59.0004C144.393 59.0004 152.005 66.6111 152.005 76.0005C152.005 85.3889 144.393 93.0007 135.005 93.0007C125.615 93.0007 118.005 85.3889 118.005 76.0005C118.005 66.6111 125.615 59.0004 135.005 59.0004V59.0004Z" fill="#A5A5A5"/>
</svg>
