<svg width="269" height="152" viewBox="0 0 269 152" fill="none" xmlns="http://www.w3.org/2000/svg">
<path d="M184.894 44.709C181.183 46.3531 177.198 47.464 173.007 47.9661C177.282 45.4066 180.561 41.3453 182.108 36.5108C178.108 38.8836 173.678 40.6077 168.964 41.5319C165.187 37.515 159.81 35 153.856 35C142.427 35 133.158 44.2691 133.158 55.7066C133.158 57.324 133.345 58.897 133.691 60.4167C116.482 59.5502 101.236 51.3076 91.0251 38.7858C89.2477 41.8518 88.2257 45.4066 88.2257 49.1925C88.2257 56.3731 91.8827 62.714 97.4326 66.4243C94.0378 66.3132 90.8474 65.3845 88.0569 63.8338V64.1004C88.0569 74.1293 95.1887 82.4964 104.662 84.3982C102.92 84.8692 101.094 85.118 99.21 85.118C97.877 85.118 96.575 84.9936 95.3131 84.7537C97.9481 92.9741 105.591 98.9639 114.651 99.1239C107.564 104.678 98.6368 107.989 88.9411 107.989C87.2704 107.989 85.6219 107.891 84 107.7C93.1625 113.579 104.04 117 115.726 117C153.807 117 174.625 85.4602 174.625 58.1061C174.625 57.2174 174.603 56.3198 174.563 55.4311C178.606 52.5073 182.116 48.8681 184.885 44.7223L184.894 44.709Z" fill="#A5A5A5"/>
</svg>
